<?xml version="1.0" encoding="utf-8"?>
<!-- Generator: Adobe Illustrator 25.2.3, SVG Export Plug-In . SVG Version: 6.00 Build 0)  -->
<svg version="1.1" id="Layer_1" xmlns="http://www.w3.org/2000/svg" xmlns:xlink="http://www.w3.org/1999/xlink" x="0px" y="0px"
	 viewBox="0 0 512 512" style="enable-background:new 0 0 512 512;" xml:space="preserve">
<style type="text/css">
	.st0{fill:#5FB3BC;}
</style>
<path class="st0" d="M481.8,340.8L481.8,340.8c-15.6-15.4-40.9-15.4-56.3,0.1l-58.6,58.6c-10,10-21.9,17.5-34.8,22.2
	c1.7-4.4,2.6-9.2,2.6-14.3c0-22-17.9-39.9-39.8-39.9h-79.2l-14.9-15.2c-20.2-20.5-48.2-32.3-77-32.3c-23.6,0-46.8,7.9-65.6,22.2
	l-35.8,27.4c-4.4,3.4-5.2,9.6-1.9,14c3.4,4.4,9.6,5.2,14,1.9l35.8-27.4c15.2-11.7,34.2-18.1,53.4-18.1c23.4,0,46.3,9.6,62.7,26.3
	l17.9,18.2c1.9,1.9,4.5,3,7.1,3h83.4c10.9,0,19.8,8.9,19.8,19.9c0,10.9-8.9,19.9-19.9,19.9H163.4c-5.5,0-10,4.5-10,10s4.5,10,10,10
	h136.3c30.7,0,59.5-11.9,81.2-33.6l58.6-58.6c7.7-7.7,20.4-7.8,28.1-0.1c3.8,3.8,5.9,8.8,5.9,14.1c0,5.3-2.1,10.4-5.8,14.1
	l-33.5,33.5c-0.5,0.5-0.9,1.1-1.3,1.6c-13.3,13.7-45.3,45.3-69.5,58.2c-20.3,10.1-42.8,15.4-65.5,15.4H28.4c-5.5,0-10,4.5-10,10
	s4.5,10,10,10h269.5c22.4,0,44.7-4.6,65.2-13.2l0,0c0,0,1.2-0.5,3.3-1.5c4-1.8,8-3.7,11.8-5.8c0.9-0.5,1.7-1.1,2.3-1.8
	c16.1-9.6,41.4-27.8,67.7-58.7l33.5-33.5c7.6-7.6,11.7-17.6,11.7-28.3C493.6,358.4,489.4,348.3,481.8,340.8z"/>
<g>
	<path class="st0" d="M421.5,180.6c-0.3,0.2-0.6,0.4-0.9,0.7c-11.7,11.7-23.5,23.5-35.2,35.2c-0.4,0.4-0.6,0.9-0.9,1.2
		c-12.6-12.6-25-25-37.2-37.2c12.3-12.3,24.6-24.6,37.1-37.1c0.1,0.1,0.4,0.3,0.7,0.6c12,12,24.1,24.1,36.1,36.1
		c0.1,0.1,0.2,0.2,0.3,0.2C421.5,180.4,421.5,180.5,421.5,180.6z"/>
	<path class="st0" d="M154.3,244.4c12.2-12.3,24.5-24.8,37-37.3c10.8,10.8,21.5,21.5,32.2,32.2c10.7,10.7,21.4,21.4,32.2,32.2
		c2.1-1.9,4-3.9,5.9-5.8c2-2,3.9-3.9,5.9-5.9c1.9-1.9,3.9-3.9,5.8-5.8s3.9-3.9,5.8-5.8c2-2,3.9-3.9,5.9-5.9c1.9-1.9,3.9-3.9,5.8-5.8
		c2-2,3.9-3.9,5.9-5.9c1.9-1.9,3.9-3.9,5.8-5.8c1.9-1.9,3.9-3.9,5.8-5.8c2-2,3.9-3.9,5.9-5.9c1.9-1.9,3.9-3.9,5.7-5.7
		c12.4,12.5,24.8,24.9,37.2,37.3c-0.4,0.7-100.5,100.8-101.4,101.4C222,312,188.1,278.2,154.3,244.4z"/>
	<path class="st0" d="M357.3,116.3c-12.4,12.4-24.8,24.8-37.2,37.2c-21.3-21.3-42.8-42.8-64.3-64.3c-21.5,21.5-42.9,42.9-64.2,64.2
		c-0.2,0-0.2,0-0.3,0c0,0-0.1,0-0.1,0c-0.1-0.1-0.2-0.1-0.3-0.2c-12.1-12.1-24.2-24.2-36.3-36.3c-0.1-0.1-0.2-0.3-0.2-0.3
		C188.1,82.7,222,48.9,255.9,15C256.5,15.3,356.5,115.2,357.3,116.3z"/>
	<path class="st0" d="M255.8,142.9c12.4,12.5,25,25,37.4,37.4c-12.5,12.5-25,25-37.5,37.5c-12.4-12.4-24.9-25-37.4-37.5
		C230.7,168,243.3,155.4,255.8,142.9z"/>
	<path class="st0" d="M90.3,180.5c12.4-12.4,24.7-24.7,37.1-37.1c0.7,0.4,35.5,35.1,37,36.9c-0.5,0.8-35.8,36.2-37,37.2
		C126.4,216.9,91,181.5,90.3,180.5z"/>
</g>
</svg>
