<?xml version="1.0" encoding="utf-8"?>
<!-- Generator: Adobe Illustrator 25.2.3, SVG Export Plug-In . SVG Version: 6.00 Build 0)  -->
<svg version="1.1" id="Layer_1" xmlns="http://www.w3.org/2000/svg" xmlns:xlink="http://www.w3.org/1999/xlink" x="0px" y="0px"
	 viewBox="0 0 512 512" style="enable-background:new 0 0 512 512;" xml:space="preserve">
<style type="text/css">
	.st0{fill:#5FB3BC;}
</style>
<path class="st0" d="M481.8,340.8L481.8,340.8c-15.6-15.4-40.9-15.4-56.3,0.1l-58.6,58.6c-10,10-21.9,17.5-34.8,22.2
	c1.7-4.4,2.6-9.2,2.6-14.3c0-22-17.9-39.9-39.8-39.9l-79.2,0l-14.9-15.2c-20.2-20.5-48.2-32.3-77-32.3c-23.6,0-46.8,7.9-65.6,22.2
	l-35.8,27.4c-4.4,3.4-5.2,9.6-1.9,14c3.4,4.4,9.6,5.2,14,1.9l35.8-27.4c15.2-11.7,34.2-18.1,53.4-18.1c23.4,0,46.3,9.6,62.7,26.3
	l17.9,18.2c1.9,1.9,4.5,3,7.1,3l83.4,0c10.9,0,19.8,8.9,19.8,19.9c0,10.9-8.9,19.9-19.9,19.9l-131.3,0c-5.5,0-10,4.5-10,10
	c0,5.5,4.5,10,10,10h136.3c30.7,0,59.5-11.9,81.2-33.6l58.6-58.6c7.7-7.7,20.4-7.8,28.1-0.1c3.8,3.8,5.9,8.8,5.9,14.1
	c0,5.3-2.1,10.4-5.8,14.1l-33.5,33.5c-0.5,0.5-0.9,1.1-1.3,1.6c-13.3,13.7-45.3,45.3-69.5,58.2c-20.3,10.1-42.8,15.4-65.5,15.4H28.4
	c-5.5,0-10,4.5-10,10c0,5.5,4.5,10,10,10h269.5c22.4,0,44.7-4.6,65.2-13.2c0,0,0,0,0,0s1.2-0.5,3.3-1.5c4-1.8,8-3.7,11.8-5.8
	c0.9-0.5,1.7-1.1,2.3-1.8c16.1-9.6,41.4-27.8,67.7-58.7l33.5-33.5c7.6-7.6,11.7-17.6,11.7-28.3C493.6,358.4,489.4,348.3,481.8,340.8
	z"/>
<g>
	<g>
		<path class="st0" d="M343.5,108c-0.8-2.3-2.8-4-5.2-4.4l-28.1-4.1l-12.6-25.5c-1.1-2.2-3.3-3.6-5.8-3.6h0c-2.5,0-4.7,1.4-5.8,3.6
			l-12.6,25.5l-28.1,4.1c-2.4,0.4-4.5,2.1-5.2,4.4c-0.8,2.3-0.1,4.9,1.6,6.6l20.3,19.8l-4.8,28c-0.4,2.4,0.6,4.9,2.6,6.3
			c1.1,0.8,2.5,1.2,3.8,1.2c1,0,2.1-0.2,3-0.7l25.1-13.2l25.1,13.2c2.2,1.1,4.8,1,6.8-0.5c2-1.4,3-3.9,2.6-6.3l-4.8-28l20.3-19.8
			C343.6,112.9,344.3,110.4,343.5,108z M310.1,127.6c-1.5,1.5-2.2,3.6-1.9,5.7l3.2,18.4l-16.6-8.7c-1.9-1-4.1-1-6,0l-16.6,8.7
			l3.2-18.4c0.4-2.1-0.3-4.2-1.9-5.7l-13.4-13.1l18.5-2.7c2.1-0.3,3.9-1.6,4.9-3.5l8.3-16.8l8.3,16.8c0.9,1.9,2.8,3.2,4.9,3.5
			l18.5,2.7L310.1,127.6z"/>
	</g>
</g>
<g>
	<g>
		<path class="st0" d="M437,287.9l-53.4-92.9c16.1-20.1,25.8-45.6,25.8-73.4c0-64.8-52.7-117.6-117.6-117.6S174.3,56.9,174.3,121.7
			c0,27.7,9.7,53.3,25.8,73.4l-53.4,92.9c-1.2,2.1-1.1,4.8,0.2,6.8c1.4,2,3.8,3.1,6.2,2.8l41.7-5.6l16,38.9c0.9,2.3,3.1,3.8,5.5,4
			c0.1,0,0.3,0,0.4,0c2.3,0,4.4-1.2,5.6-3.2l53.9-93.4c0,0,0,0,0,0c5.1,0.7,10.3,1,15.6,1s10.5-0.4,15.6-1c0,0,0,0,0,0l53.9,93.4
			c1.2,2,3.3,3.2,5.6,3.2c0.1,0,0.3,0,0.4,0c2.5-0.2,4.6-1.7,5.5-4l16-38.9l41.7,5.6c2.4,0.3,4.9-0.8,6.2-2.8
			C438.1,292.7,438.2,290.1,437,287.9z M217.7,313.8l-11.6-28.3l10.4-17c1.9-3,0.9-7-2.1-8.9s-7-0.9-8.9,2.1L195,278.9l-30.6,4.1
			l44.8-77.8c14.7,14.5,33.1,25.2,53.7,30.5L217.7,313.8z M291.8,226.3c-57.7,0-104.7-46.9-104.7-104.7S234.1,17,291.8,17
			S396.5,64,396.5,121.7S349.5,226.3,291.8,226.3z M388.7,278.9l-10.6-17.2c-1.9-3-5.8-4-8.9-2.1c-3,1.9-4,5.8-2.1,8.9l10.4,17
			l-11.6,28.3l-45.1-78.2c20.6-5.2,39.1-15.9,53.7-30.5l44.8,77.8L388.7,278.9z"/>
	</g>
</g>
</svg>
