<?xml version="1.0" encoding="utf-8"?>
<!-- Generator: Adobe Illustrator 25.2.3, SVG Export Plug-In . SVG Version: 6.00 Build 0)  -->
<svg version="1.1" id="Layer_1" xmlns="http://www.w3.org/2000/svg" xmlns:xlink="http://www.w3.org/1999/xlink" x="0px" y="0px"
	 viewBox="0 0 512 512" style="enable-background:new 0 0 512 512;" xml:space="preserve">
<style type="text/css">
	.st0{fill:#5FB3BC;}
</style>
<path class="st0" d="M179.2,401.1c-4.7,0-8.5,3.8-8.5,8.5v59.7c0,4.7,3.8,8.5,8.5,8.5c4.7,0,8.5-3.8,8.5-8.5v-59.7
	C187.7,404.9,183.9,401.1,179.2,401.1z"/>
<path class="st0" d="M475.4,0.1c-18.2,1.8-32,17.2-31.6,35.5v141.9c-6.1-0.6-12.3,0.1-18.1,2.1c-7.2,2.4-13.8,6.2-19.6,11.1
	l-101.3,82.1c-2.8,2.3-5.1,5.2-6.8,8.4L256,364.9l-41.9-83.8c-1.6-3.3-3.9-6.1-6.8-8.4L106,190.6c-5.8-4.9-12.4-8.6-19.6-11
	c-5.8-2-12-2.7-18.1-2.1V35.6C68.6,17.3,54.8,1.9,36.6,0.1c-9.5-0.7-18.8,2.6-25.7,9.1S0,24.7,0,34.1v232c0,12.3,5.3,24,14.6,32.1
	l119,104.2c1.9,1.6,2.9,4,2.9,6.4v86.1c0,9.4,7.6,17.1,17.1,17.1h93.9c3,0,6-0.8,8.5-2.4c2.6,1.5,5.5,2.4,8.5,2.4h93.9
	c9.4,0,17.1-7.6,17.1-17.1v-86.1c0-2.5,1.1-4.8,2.9-6.4l119-104.2c9.3-8.1,14.6-19.8,14.6-32.1v-232c0-9.5-3.9-18.5-10.9-25
	C494.2,2.7,484.8-0.6,475.4,0.1z M153.6,494.9v-86.1c0-7.4-3.2-14.4-8.7-19.3l-119-104.2c-5.6-4.9-8.7-11.9-8.7-19.3v-232
	c0-4.7,2-9.3,5.5-12.5c3.5-3.2,8.1-4.9,12.9-4.5c9.2,1.2,16,9.2,15.8,18.5v150.6c-1.6,1.7-3,3.7-4.1,5.8c-0.2,0.3-0.3,0.5-0.5,0.8
	c-8.4,16.7-3.2,37.1,12.2,47.8l89.3,73.3c3.7,2.9,8.9,2.3,11.9-1.3c2.9-3.6,2.5-8.9-1-11.9l-90-73.8c-8.5-5.7-11.6-16.6-7.3-25.9
	c0.1-0.2,0.3-0.4,0.4-0.7c3-6.1,9.4-7.6,19.2-4.4c5.1,1.8,9.9,4.5,14.1,8l101.3,82.1c0.9,0.8,1.7,1.7,2.3,2.8l48.6,97.3v109H153.6z
	 M494.9,266.1c0,7.4-3.2,14.4-8.7,19.3l-119,104.2c-5.6,4.9-8.7,11.9-8.7,19.3v86.1h-93.9V386l48.6-97.3c0.5-1.1,1.3-2,2.3-2.8
	l101.3-82.1c4.1-3.5,8.9-6.3,14.1-8c9.8-3.1,16.2-1.6,19.2,4.4c0.1,0.2,0.2,0.4,0.4,0.6c4.3,9.6,0.9,20.9-8,26.5L353,300.6
	c-3.5,3-4,8.3-1,11.9c2.9,3.6,8.2,4.2,11.9,1.3l88.7-72.8c15.8-10.6,21.4-31.2,12.9-48.3c-0.1-0.2-0.3-0.5-0.4-0.7
	c-1.1-2.1-2.5-4.1-4.1-5.9V35.6c-0.2-9.3,6.6-17.3,15.8-18.5c4.7-0.3,9.4,1.3,12.9,4.5c3.5,3.2,5.5,7.8,5.5,12.5V266.1z"/>
<path class="st0" d="M332.8,401.1c-4.7,0-8.5,3.8-8.5,8.5v59.7c0,4.7,3.8,8.5,8.5,8.5c4.7,0,8.5-3.8,8.5-8.5v-59.7
	C341.3,404.9,337.5,401.1,332.8,401.1z"/>
<g>
	<path class="st0" d="M137.5,124.1c0,60.6,49.3,110,110,110s110-49.3,110-110s-49.3-110-110-110S137.5,63.4,137.5,124.1z
		 M337.4,124.1c0,49.6-40.4,90-90,90s-90-40.4-90-90c0-49.6,40.4-90,90-90S337.4,74.5,337.4,124.1z"/>
	<path class="st0" d="M235.5,64.1v11.7c-11.6,4.1-20,15.2-20,28.3c0,16.5,13.5,30,30,30c5.5,0,10,4.5,10,10s-4.5,10-10,10
		c-4.3,0-8.9-2.7-13-7.6c-3.6-4.2-9.9-4.8-14.1-1.2c-4.2,3.6-4.8,9.9-1.2,14.1c5.3,6.4,11.6,10.8,18.3,13v11.7c0,5.5,4.5,10,10,10
		s10-4.5,10-10v-11.7c11.6-4.1,20-15.2,20-28.3c0-16.5-13.5-30-30-30c-5.5,0-10-4.5-10-10s4.5-10,10-10c3.5,0,7.3,1.8,10.8,5.2
		c4,3.8,10.3,3.7,14.1-0.2c3.8-4,3.7-10.3-0.2-14.1c-5.1-4.9-10.2-7.7-14.7-9.2V64.1c0-5.5-4.5-10-10-10S235.5,58.6,235.5,64.1z"/>
</g>
</svg>
