<?xml version="1.0" encoding="utf-8"?>
<!-- Generator: Adobe Illustrator 25.2.3, SVG Export Plug-In . SVG Version: 6.00 Build 0)  -->
<svg version="1.1" id="Layer_1" xmlns="http://www.w3.org/2000/svg" xmlns:xlink="http://www.w3.org/1999/xlink" x="0px" y="0px"
	 viewBox="0 0 512 512" style="enable-background:new 0 0 512 512;" xml:space="preserve">
<style type="text/css">
	.st0{fill:#5FB3BC;}
</style>
<path class="st0" d="M179.2,401.1c-4.7,0-8.5,3.8-8.5,8.5v59.7c0,4.7,3.8,8.5,8.5,8.5s8.5-3.8,8.5-8.5v-59.7
	C187.7,404.9,183.9,401.1,179.2,401.1z"/>
<path class="st0" d="M475.4,0.1c-18.2,1.8-32,17.2-31.6,35.5v141.9c-6.1-0.6-12.3,0.1-18.1,2.1c-7.2,2.4-13.8,6.2-19.6,11.1
	l-101.3,82.1c-2.8,2.3-5.1,5.2-6.8,8.4l-42,83.7l-41.9-83.8c-1.6-3.3-3.9-6.1-6.8-8.4L106,190.6c-5.8-4.9-12.4-8.6-19.6-11
	c-5.8-2-12-2.7-18.1-2.1V35.6C68.6,17.3,54.8,1.9,36.6,0.1c-9.5-0.7-18.8,2.6-25.7,9.1S0,24.7,0,34.1v232c0,12.3,5.3,24,14.6,32.1
	l119,104.2c1.9,1.6,2.9,4,2.9,6.4v86.1c0,9.4,7.6,17.1,17.1,17.1h93.9c3,0,6-0.8,8.5-2.4c2.6,1.5,5.5,2.4,8.5,2.4h93.9
	c9.4,0,17.1-7.6,17.1-17.1v-86.1c0-2.5,1.1-4.8,2.9-6.4l119-104.2c9.3-8.1,14.6-19.8,14.6-32.1v-232c0-9.5-3.9-18.5-10.9-25
	C494.2,2.7,484.8-0.6,475.4,0.1z M153.6,494.9v-86.1c0-7.4-3.2-14.4-8.7-19.3l-119-104.2c-5.6-4.9-8.7-11.9-8.7-19.3V34
	c0-4.7,2-9.3,5.5-12.5s8.1-4.9,12.9-4.5c9.2,1.2,16,9.2,15.8,18.5v150.6c-1.6,1.7-3,3.7-4.1,5.8c-0.2,0.3-0.3,0.5-0.5,0.8
	c-8.4,16.7-3.2,37.1,12.2,47.8l89.3,73.3c3.7,2.9,8.9,2.3,11.9-1.3c2.9-3.6,2.5-8.9-1-11.9l-90-73.8c-8.5-5.7-11.6-16.6-7.3-25.9
	c0.1-0.2,0.3-0.4,0.4-0.7c3-6.1,9.4-7.6,19.2-4.4c5.1,1.8,9.9,4.5,14.1,8l101.3,82.1c0.9,0.8,1.7,1.7,2.3,2.8l48.6,97.3v109h-94.2
	V494.9z M494.9,266.1c0,7.4-3.2,14.4-8.7,19.3l-119,104.2c-5.6,4.9-8.7,11.9-8.7,19.3V495h-93.9V386l48.6-97.3
	c0.5-1.1,1.3-2,2.3-2.8l101.3-82.1c4.1-3.5,8.9-6.3,14.1-8c9.8-3.1,16.2-1.6,19.2,4.4c0.1,0.2,0.2,0.4,0.4,0.6
	c4.3,9.6,0.9,20.9-8,26.5L353,300.6c-3.5,3-4,8.3-1,11.9c2.9,3.6,8.2,4.2,11.9,1.3l88.7-72.8c15.8-10.6,21.4-31.2,12.9-48.3
	c-0.1-0.2-0.3-0.5-0.4-0.7c-1.1-2.1-2.5-4.1-4.1-5.9V35.6c-0.2-9.3,6.6-17.3,15.8-18.5c4.7-0.3,9.4,1.3,12.9,4.5s5.5,7.8,5.5,12.5
	v232H494.9z"/>
<path class="st0" d="M332.8,401.1c-4.7,0-8.5,3.8-8.5,8.5v59.7c0,4.7,3.8,8.5,8.5,8.5s8.5-3.8,8.5-8.5v-59.7
	C341.3,404.9,337.5,401.1,332.8,401.1z"/>
<g>
	<path class="st0" d="M341.3,45.1c-1.5,12.1-2.9,23.7-4.3,35.6c-11-4.7-21.7-9.3-32.9-14c3.5-2.1,6.7-4,9.9-5.9
		c-22.1-24.6-65.9-38.5-105.9-18.7c-41.3,20.5-61.4,69.1-44.8,113.8c-5.1,2.9-10.2,5.9-15.8,9.1c-1.5-4.9-3.2-9.4-4.4-14.1
		C127.3,90.3,166,28.5,227.6,17c39.3-7.4,73.1,4.2,100.9,32.9c1.4,1.4,2.2,1.5,3.8,0.5C335.1,48.6,338,47,341.3,45.1z"/>
	<path class="st0" d="M156,202.1c1.5-12,2.9-23.6,4.3-35.6c11,4.7,21.8,9.3,32.9,14c-3.6,2.1-6.9,4-10.2,6
		c19.2,22.2,60.6,37.9,100.6,21.2c44-18.4,67.8-69.4,50.1-116.3c5.1-2.9,10.1-5.9,15.4-8.9c0.3,0.7,0.6,1.2,0.9,1.8
		c24.7,62.7-14.3,133.8-80.6,146.1c-39.5,7.3-73.3-4.2-101.2-33.1c-1.2-1.2-2-1.2-3.3-0.4C162.2,198.6,159.3,200.2,156,202.1z"/>
	<path class="st0" d="M237.7,186.8c0-3.8-0.1-7.8,0-11.7c0.1-2-0.5-2.8-2.5-3.2c-7.7-1.5-14.4-5.2-20.4-10.3
		c-0.2-0.1-0.3-0.3-0.5-0.7c3.4-6.1,6.9-12.3,10.5-18.7c1.6,1.3,3.1,2.4,4.6,3.6c6.3,5.1,13.5,6.7,21.5,5.8c0.7-0.1,1.4-0.3,2.1-0.5
		c2.9-1,5.5-2.5,6.2-5.8c0.7-3.2-1.1-5.6-3.5-7.2c-3.2-2.1-6.7-3.8-10-5.7c-5.5-3.1-11.3-5.8-16.3-9.5c-18.9-14-12.1-37.6,5.4-45.1
		c3.7-1.6,4.9-3.4,4.5-7.1c-0.3-3.2,0-6.4,0-9.6c0-0.2,0.1-0.4,0.2-0.8c7.2,0,14.4,0,22,0c0,4.2,0.1,8.3-0.1,12.4
		c-0.1,2.1,0.6,2.9,2.6,3.4c6.6,1.6,12.5,4.9,18.6,8.3c-4,6.6-8,13.1-12.1,19.7c-1.5-1.2-2.8-2.4-4.1-3.5
		c-5.9-4.9-12.7-5.7-19.9-4.5c-1.1,0.2-2.2,0.8-3.2,1.4c-2.9,1.8-3.4,4.8-0.8,6.8c3.6,2.8,7.6,5,11.5,7.3c4.8,2.7,9.9,4.9,14.5,7.9
		c11.7,7.7,16.1,20,12,32.3c-3.1,9.2-9.6,15.3-18.5,18.8c-1.8,0.7-2.4,1.6-2.3,3.5c0.1,3.7,0,7.4,0,11.1c0,1,0,1.9-1.4,1.9
		c-6.7,0-13.4,0-20.1-0.1C238.3,187.2,238.1,187,237.7,186.8z"/>
</g>
</svg>
