<?xml version="1.0" encoding="utf-8"?>
<!-- Generator: Adobe Illustrator 25.2.3, SVG Export Plug-In . SVG Version: 6.00 Build 0)  -->
<svg version="1.1" id="Layer_1" xmlns="http://www.w3.org/2000/svg" xmlns:xlink="http://www.w3.org/1999/xlink" x="0px" y="0px"
	 viewBox="0 0 512 512" style="enable-background:new 0 0 512 512;" xml:space="preserve">
<style type="text/css">
	.st0{fill:#5FB3BC;}
</style>
<g id="Calendar">
	<path class="st0" d="M456,64h-40V48c0-17.7-14.3-32-32-32s-32,14.3-32,32v16h-64V48c0-17.7-14.3-32-32-32s-32,14.3-32,32v16h-64V48
		c0-17.7-14.3-32-32-32S96,30.3,96,48v16H56c-22.1,0-40,17.9-40,40v320c0,22.1,17.9,40,40,40h224c4.4,0,8-3.6,8-8s-3.6-8-8-8H56
		c-13.2,0-24-10.8-24-24V176h448v136c0,4.4,3.6,8,8,8s8-3.6,8-8V104C496,81.9,478.1,64,456,64z M368,48c0-8.8,7.2-16,16-16
		s16,7.2,16,16v48c0,8.8-7.2,16-16,16s-16-7.2-16-16V48z M240,48c0-8.8,7.2-16,16-16c8.8,0,16,7.2,16,16v48c0,8.8-7.2,16-16,16
		c-8.8,0-16-7.2-16-16V48z M112,48c0-8.8,7.2-16,16-16s16,7.2,16,16v48c0,8.8-7.2,16-16,16s-16-7.2-16-16V48z M480,160H32v-56
		c0-13.2,10.8-24,24-24h40v16c0,17.7,14.3,32,32,32s32-14.3,32-32V80h64v16c0,17.7,14.3,32,32,32s32-14.3,32-32V80h64v16
		c0,17.7,14.3,32,32,32s32-14.3,32-32V80h40c13.2,0,24,10.8,24,24V160z"/>
	<path class="st0" d="M240,232c0-8.8-7.2-16-16-16h-32c-8.8,0-16,7.2-16,16v24c0,8.8,7.2,16,16,16h32c8.8,0,16-7.2,16-16V232z
		 M192,256v-24h32v24H192z"/>
	<path class="st0" d="M144,232c0-8.8-7.2-16-16-16H96c-8.8,0-16,7.2-16,16v24c0,8.8,7.2,16,16,16h32c8.8,0,16-7.2,16-16V232z
		 M96,256v-24h32v24H96z"/>
	<path class="st0" d="M416,272c8.8,0,16-7.2,16-16v-24c0-8.8-7.2-16-16-16h-32c-8.8,0-16,7.2-16,16v24c0,8.8,7.2,16,16,16H416z
		 M384,232h32v24h-32V232z"/>
	<path class="st0" d="M240,304c0-8.8-7.2-16-16-16h-32c-8.8,0-16,7.2-16,16v24c0,8.8,7.2,16,16,16h32c8.8,0,16-7.2,16-16V304z
		 M192,328v-24h32v24H192z"/>
	<path class="st0" d="M144,304c0-8.8-7.2-16-16-16H96c-8.8,0-16,7.2-16,16v24c0,8.8,7.2,16,16,16h32c8.8,0,16-7.2,16-16V304z
		 M96,328v-24h32v24H96z"/>
	<path class="st0" d="M224,360h-32c-8.8,0-16,7.2-16,16v24c0,8.8,7.2,16,16,16h32c8.8,0,16-7.2,16-16v-24
		C240,367.2,232.8,360,224,360z M192,400v-24h32v24H192z"/>
	<path class="st0" d="M288,272h32c8.8,0,16-7.2,16-16v-24c0-8.8-7.2-16-16-16h-32c-8.8,0-16,7.2-16,16v24
		C272,264.8,279.2,272,288,272z M288,232h32v24h-32V232z"/>
	<path class="st0" d="M272,328c0,8.8,7.2,16,16,16c4.4,0,8-3.6,8-8s-3.6-8-8-8v-24h32c4.4,0,8-3.6,8-8s-3.6-8-8-8h-32
		c-8.8,0-16,7.2-16,16V328z"/>
	<path class="st0" d="M128,360H96c-8.8,0-16,7.2-16,16v24c0,8.8,7.2,16,16,16h32c8.8,0,16-7.2,16-16v-24
		C144,367.2,136.8,360,128,360z M96,400v-24h32v24H96z"/>
	<path class="st0" d="M392,288c-57.4,0-104,46.6-104,104s46.6,104,104,104s104-46.6,104-104C495.9,334.6,449.4,288.1,392,288z
		 M392,480c-48.6,0-88-39.4-88-88s39.4-88,88-88s88,39.4,88,88C479.9,440.6,440.6,479.9,392,480z"/>
</g>
<g>
	<path class="st0" d="M379.1,392.3c-8.5-8.9-16.8-17.5-25.2-26.1c-0.7-0.7-1.4-1.4-2.2-2.1c-5.4-5.4-6-10.9-1.8-15.3
		c4.1-4.3,10.1-3.9,15.4,1.2c3.8,3.7,7.6,7.5,11.4,11.2c7.6,7.5,15.2,14.9,22.8,22.4c5.4,5.3,5.4,10.7,0,16
		c-11.4,11.5-22.8,22.9-34.3,34.3c-5,5-10.8,5.5-15,1.5c-4.4-4.2-4.1-10.1,1.1-15.4c8.2-8.3,16.5-16.5,24.7-24.7
		C377.3,394.3,378.4,393,379.1,392.3z"/>
	<path class="st0" d="M429.1,393.2c-9.3-9.7-17.7-18.3-26-26.9c-1.3-1.3-2.7-2.5-3.9-3.9c-3.7-4.2-3.8-9.7-0.2-13.5
		c3.7-3.9,9.7-4.1,13.9-0.3c3.6,3.2,6.9,6.8,10.3,10.1c8.4,8.3,16.9,16.5,25.3,24.9c5.5,5.4,5.5,10.6,0.1,16
		c-11.5,11.6-23,23.1-34.6,34.6c-4.9,4.9-10.9,5.2-15,0.9c-4-4.1-3.7-9.8,1.1-14.6c8.1-8.2,16.2-16.3,24.4-24.4
		C426.1,394.9,427.9,394,429.1,393.2z"/>
</g>
</svg>
